<svg xmlns="http://www.w3.org/2000/svg" width="146.8737mm" height="255.7208mm" viewBox="0 0 416.3349 724.8778"><defs><style>.cls-1{fill:#5a63ad;}.cls-2{fill:#f6b9a5;}.cls-3{fill:#ec9070;}.cls-4{fill:#e0e0e0;}.cls-5{fill:#f7a092;}.cls-6{fill:#f05555;}.cls-7{fill:none;stroke:#fee7db;stroke-miterlimit:10;stroke-width:2px;}.cls-8{fill:#572827;}.cls-9{fill:#0b0c16;}.cls-10{fill:#919bce;}.cls-11{fill:#efdeed;}.cls-12{fill:#f7bc16;}.cls-13{fill:#ffd877;}.cls-14{fill:#a779b5;}</style></defs><title>Asset 1me</title><g id="Layer_2" data-name="Layer 2"><g id="Layer_19" data-name="Layer 19"><path class="cls-1" d="M309.5654,648.2451s-12.0028,49.352-4.6008,66.8758-218.1218,6.0952-218.1218,6.0952-10.53-77.7142-5.2649-84.19,227.9875,11.2194,227.9875,11.2194"/><path class="cls-2" d="M100.3994,451.7774S3.9483,595.8547.6224,620.9976s7.76,28.5714,7.76,28.5714,89.7992,29.7143,171.8381,19.4286c0,0-68.7353-64-78.713-64s8.8691-69.7143,8.8691-69.7143l7.76-52.2588,29.9331-24.3959Z"/><path class="cls-3" d="M128.2074,657.8777a4.4544,4.4544,0,0,1-3.5359-1.6306,2.5,2.5,0,0,0-3.5356,3.5355,9.37,9.37,0,0,0,7.0715,3.0951c3.2161-.0235,3.2235-5.0236,0-5Z"/><path class="cls-3" d="M120.3932,659.8141Q105.8906,642.351,90.47,625.69c-2.19-2.3666-5.72,1.1757-3.5355,3.5355q15.42,16.659,29.9237,34.1237c2.0576,2.4778,5.5779-1.0762,3.5355-3.5355Z"/><path class="cls-3" d="M140.676,648.5262c-16.4392-16.263-32.1743-34.8563-54.218-43.4459-6.2921-2.4518-13.7188,2.6974-15.3765,8.7305-1.9443,7.076,2.4154,12.9158,8.73,15.3765,7.8854,3.0726,14.5153,8.9837,20.5708,14.7294,7.6751,7.2826,15.0942,14.8465,22.6156,22.2872,11.4494,11.3267,29.1372-6.3409,17.6776-17.6777Z"/><path class="cls-3" d="M70.1453,618.7194c2.8793,10.6491,12.7537,20.0288,20.2253,27.7909a207.5287,207.5287,0,0,0,26.03,22.5371c5.4241,4.0272,13.9582.8912,17.1024-4.4844,3.7243-6.3674.9527-13.0656-4.4844-17.1023a168.745,168.745,0,0,1-19.7594-17.3819q-4.8672-4.9619-9.35-10.2823c-1.82-2.1609-5.1943-6.0114-5.6571-7.7231-4.1946-15.5138-28.3184-8.93-24.1069,6.646Z"/><path class="cls-3" d="M89.87,608.7415l-3.8281-3.0241a9.3686,9.3686,0,0,0-4.0228-2.5846,9.4136,9.4136,0,0,0-4.816-1.0766,9.4136,9.4136,0,0,0-4.816,1.0766,9.3686,9.3686,0,0,0-4.0228,2.5846,12.5774,12.5774,0,0,0-3.6612,8.8388l.4465,3.323a12.4878,12.4878,0,0,0,3.2147,5.5158l3.828,3.0242a9.3689,9.3689,0,0,0,4.0229,2.5846,9.4143,9.4143,0,0,0,4.816,1.0766,9.4146,9.4146,0,0,0,4.816-1.0766,9.3692,9.3692,0,0,0,4.0228-2.5846,12.5774,12.5774,0,0,0,3.6612-8.8388l-.4465-3.323a12.4887,12.4887,0,0,0-3.2147-5.5159Z"/><path class="cls-3" d="M128.2057,670.7316c16.0863,0,16.113-25,0-25-16.0863,0-16.1129,25,0,25Z"/><rect class="cls-2" x="183.8248" y="306.803" width="138.5098" height="106.6667"/><path class="cls-4" d="M366.7778,549.5934q1.0929-.1433,2.1932-.2111,2.2344.0293-.0846-.12-5.5914-1.8052-5.8682-8.1559,2.01-5.9394.444-3.0533c-1.8339,2.2522-3.1864,5.1736-4.7114,7.65-3.4336,5.5749-1.39,13.9989,4.4844,17.1024a12.7528,12.7528,0,0,0,17.1023-4.4844c4.0034-6.5,9.2329-13.1732,7.1448-21.2994-2.3647-9.2028-11.9358-13.4242-20.7045-12.4277-6.4748.7357-12.826,5.2217-12.5,12.5.275,6.1394,5.5418,13.2907,12.5,12.5Z"/><path class="cls-4" d="M353.43,516.29c-4.5586.8834-9.1176,1.9214-13.7162,2.5658h6.646c3.0853.473,4.0589,4.8815,2.5587.7228a33.8037,33.8037,0,0,1-1.3895-5.0837,34.6959,34.6959,0,0,1-.2528-8.9175c.7267-10.3442-14.5328-17.1352-21.3388-8.8388-6.5046,7.9289-13.1771,15.9234-18.2708,24.8623a100.4306,100.4306,0,0,0-6.3822,13.9973c-.7719,2.0222-1.4538,4.0732-2.4014,6.0208a20.6374,20.6374,0,0,0-1.6357,2.922q-.9261,1.298.3916-.1729,3.94-4.57,10.7585,2.0979c-7.9108-14.01-29.5157-1.4239-21.5867,12.618a17.3632,17.3632,0,0,0,22.979,6.7123c7.3544-3.7976,10.8032-11.2545,13.7223-18.58,4.94-12.3977,11.6544-22.5012,20.103-32.8l-21.3388-8.8389c-.688,9.7927,1.1527,21.1937,6.45,29.6539,7.2874,11.638,20.2838,7.31,31.3495,5.1657,6.6312-1.2849,10.42-9.2289,8.7305-15.3765-1.9051-6.9322-8.7261-10.0191-15.3765-8.7305Z"/><path class="cls-2" d="M209.8988,331.2022s24.381,38.0953,4.5714,56.381,46.4762,51.81,90.6667,22.8571c0,0-10.6667-70.0952,10.6667-92.9524C315.8036,317.4879,274.6607,402.0594,209.8988,331.2022Z"/><path class="cls-4" d="M305.087,403.6453c-2.8726,1.51-51.7352,35.5355-94.5466-22.3615s-3.5842-.0124-3.5842-.0124-63.7435-16.1765-89.6386,9.57S77.575,482.6479,77.575,482.6479l47.29,6.2417s-14.376,11.3484-15.1007,13.6255-12.43,70.6246-12.43,70.6246l134.6188,43.0158,79.15-86.3521,16.5841-28.0579,62.9038,51.8873s74.9984-129.6786-31.0281-149.04Z"/><path class="cls-1" d="M155.0331,467.9406s-50.1461,19.82-59.6367,49.4451c0,0-6.5655,39.0414-5.0622,58.9309s165.2233,56.2007,165.2233,56.2007l39.1263-61.4946s-21.5916-30.1368,7.6-69.2422h0l-147.2512-33.84"/><path class="cls-2" d="M297.2166,340.7156a41.48,41.48,0,0,1-12.6961,12.6913c-4.1285,2.5822-8.6994,4.1122-12.19,7.626-2.27,2.2853,1.2635,5.8224,3.5355,3.5355,4.1765-4.2038,10.4364-5.9807,15.1318-9.6421a47.4173,47.4173,0,0,0,10.5364-11.6871c1.7617-2.704-2.5655-5.2125-4.3173-2.5236Z"/><path class="cls-3" d="M290.6619,339.929a39.5342,39.5342,0,0,1-31.869,9.5c-3.1475-.4633-4.506,4.3538-1.3292,4.8214a44.9473,44.9473,0,0,0,36.7337-10.7856c2.4215-2.1285-1.1262-5.6534-3.5355-3.5355Z"/><ellipse class="cls-3" cx="245.2671" cy="309.9237" rx="55.5069" ry="66.6625" transform="translate(-111.3043 480.4097) rotate(-77.1963)"/><path class="cls-4" d="M390.6819,553.0721l-.4022.4948-13.3131,16.3768a2.3363,2.3363,0,0,1-1.813.8593H367.931a2.3069,2.3069,0,0,1-2.2093-3.026l9.2327-27.6406"/><path class="cls-2" d="M385.6079,521.4751A43.8558,43.8558,0,0,0,374.87,518.61c-.2907-.0484-.5981-.0932-.8937-.14A71.423,71.423,0,0,0,385.6079,521.4751Z"/><path class="cls-2" d="M339.2152,521.77a97.58,97.58,0,0,0-12.028-3.0948c-.4764-.0922-.9572-.1625-1.4373-.2353-.1742-.022-.408-.0506-.67-.0783-1.5588-.1654-3.1182-.3194-4.68-.4515-4.366-.3692-8.764-.7123-13.1468-.8027a10.2586,10.2586,0,0,1-8.1457-3.8575c-25.4582,35.1438-57.2161,92.65-57.2161,92.65h0c-13.9582-5.6247-36.1415-11.005-69.9594-11.005-70.8571,0-55.619-14.4762-77.7142-18.2857S53.837,615.467,64.5037,617.7528s57.1428,48.7619,82.2857,63.2381,99.8095,37.4138,99.8095,37.4138C285.865,700.5137,353.2077,592.78,386.0038,537.1886,369.5465,535.1187,354.953,526.9569,339.2152,521.77Z"/><ellipse class="cls-2" cx="258.9061" cy="250.614" rx="79.8095" ry="110.0952"/><ellipse class="cls-5" cx="223.5053" cy="284.8649" rx="16.8677" ry="5.7601"/><ellipse class="cls-5" cx="298.3909" cy="284.8649" rx="16.8677" ry="5.7601"/><path class="cls-6" d="M210.9534,234.6571c-16.8952.8644,20.5938-10.13,30.2339,2.5318,0,0,.6768,5.6741-4.1048,5.8608"/><path class="cls-6" d="M302.0773,231.6029c17.5238-1.1428-22.4762-7.619-30.8571,6.0953,0,0,0,5.7143,4.9524,5.3333"/><path class="cls-7" d="M251.6608,260.5188a26.0017,26.0017,0,1,1-52,0q0-.863.0543-1.7123a25.9928,25.9928,0,0,1,51.9457,1.7123Z"/><ellipse class="cls-7" cx="291.3751" cy="260.5188" rx="26" ry="26.2982"/><ellipse class="cls-8" cx="291.4704" cy="255.4743" rx="5.7143" ry="8.7619"/><ellipse class="cls-8" cx="224.137" cy="255.4743" rx="5.7143" ry="8.7619"/><path class="cls-3" d="M249.1072,243.7092a68.2861,68.2861,0,0,1,3.857,35.6006,66.58,66.58,0,0,1-1.7273,7.64c-.5022,1.739-1.69,3.8609-1.0923,5.7285,1.098,3.4324,5.9319,6.9362,8.32,9.512.548.5913,1.43-.2943.8839-.8839-1.7571-1.8955-3.9132-3.7141-5.3965-5.8218-2.5374-3.6054-2.034-6.0947-1.0485-9.8821a67.9821,67.9821,0,0,0,2.1018-13.9186,69.6143,69.6143,0,0,0-4.6923-28.3071c-.2856-.7432-1.4947-.42-1.2054.3323Z"/><path class="cls-3" d="M261.36,296.1491l2.3525,1.4126a.6255.6255,0,0,0,.6309-1.0793L261.99,295.07a.6255.6255,0,0,0-.6309,1.0794Z"/><path class="cls-3" d="M231.1821,317.715c13.4328,11.9357,36.2787,11.0542,52.2467,5.716.7591-.2538.4336-1.4615-.3323-1.2054-15.507,5.1841-37.9536,6.225-51.03-5.3945-.6-.5327-1.4868.3483-.8839.8839Z"/><path class="cls-7" d="M251.8129,258.803s3.684-4.5714,13.5622,0"/><path class="cls-7" d="M317.2849,262.6221s7.843-2.8032,9.3819-4.8349"/><path class="cls-7" d="M182.21,253.803s11.954,5.1521,17.4512,5.4332"/><path class="cls-6" d="M280.664,150.65c-4.9593,23.0137-21.1313,53.6928-71.072,62.703a25.0032,25.0032,0,0,0-18.9562,16.1733c-5.6366,15.44-8.1422,35.4014-9.0526,44.5642a17.7128,17.7128,0,0,0,1.55,9.2138c8.0454,17.3267,37.2557,82.8178,25.8838,96.819-7.7273,9.5139-34.0413,11.321-54.3979,11.1965-14.1628-.0867-25.3367-12.4573-24.46-27.0406,2.7239-45.3153,11.9013-136.1775,42.09-157.6987,34.7821-24.7955,37.6533-84.1591,83.1094-86.9125C271.6238,118.6825,284.2,134.2413,280.664,150.65Z"/><path class="cls-6" d="M142.1452,269.115C144.044,79.018,286.301,122.7691,286.301,122.7691"/><path class="cls-6" d="M273.7043,118.4221s.1969,35.9368-5.753,48.2416a4.0986,4.0986,0,0,0,2.2173,5.6733c13.8521,5.0987,49.49,32.0935,56.2221,83.3256,8.3158,63.2867-37.4044,91.9925-33.5239,117.68.1236.8179.2668,1.6327.355,2.4551l3.21,29.9509a4.1406,4.1406,0,0,0,3.8825,3.7072l74.6131,4.0075a4.1385,4.1385,0,0,0,4.3453-4.1958c-.3462-33.0168-5.9653-240.6752-92.2765-286.488a29.7735,29.7735,0,0,0-19.7586-2.9185c-22.1163,4.4012-75.3693,21.8983-101.19,89.9558"/><path class="cls-4" d="M205.6891,381.3739s-66.0629-22.8019-97.1433,20.2615"/><path class="cls-1" d="M146.99,473.0544l18.5065,6.5974a1.9926,1.9926,0,0,0,2.52-1.5143L196.4791,381.47a2.443,2.443,0,0,0-1.6355-3.17l-17.1448-2.9325a2.0278,2.0278,0,0,0-2.2028,1.5306L145.6716,469.9A2.522,2.522,0,0,0,146.99,473.0544Z"/><circle class="cls-9" cx="159.6347" cy="462.2397" r="8.6691"/><path class="cls-1" d="M270.8952,505.2517l19.8137,12.5537a2.4082,2.4082,0,0,0,3.3486-.9464L353.3434,418.59a2.7468,2.7468,0,0,0-1.0531-3.9575l-19.2136-8.13a2.4346,2.4346,0,0,0-2.9831,1.0549l-59.8862,93.8451A2.8043,2.8043,0,0,0,270.8952,505.2517Z"/><path class="cls-10" d="M171.3106,498.9883l45.0232,14.0148a6.3447,6.3447,0,0,1,3.9106,8.6381L207.24,550.8549a6.3448,6.3448,0,0,1-4.8177,3.6886l-28.57,4.46a6.3447,6.3447,0,0,1-5.6225-1.9457l-17.7487-19.0657a6.3446,6.3446,0,0,1-1.0319-7.1586l14.2993-28.6225A6.3446,6.3446,0,0,1,171.3106,498.9883Z"/><circle class="cls-9" cx="287.0181" cy="498.7257" r="8.6691"/><path class="cls-11" d="M249.11,31.5867a2.6149,2.6149,0,0,1,5.1013,0l13.827,61.2224L277.2,133.3743a26.1826,26.1826,0,0,1-25.5393,31.9506h0a26.1825,26.1825,0,0,1-25.5393-31.9506l9.1616-40.5652Z"/><path class="cls-12" d="M248.5077,33.4731c.7959-4.8531,4.8048-4.8531,5.6006,0h0l1.5665,9.5523c.6323,3.8559-1.4964,7.5237-4.3668,7.5237h0c-2.87,0-4.9991-3.6678-4.3668-7.5237l1.5665-9.5523Z"/><path class="cls-13" d="M289.6285,43.0478q9.7828-4.4375,19.3377-9.3425c2.8635-1.47.3368-5.7857-2.5236-4.3173q-9.5568,4.9059-19.3377,9.3425c-2.9261,1.3272-.3873,5.6377,2.5236,4.3173Z"/><path class="cls-13" d="M252.3129,12.7007V2.4149c0-3.2172-5-3.2225-5,0V12.7007c0,3.2172,5,3.2225,5,0Z"/><path class="cls-13" d="M226.8482,38.7305q-11.3026-6.5989-22.291-13.7044c-2.71-1.7524-5.2193,2.5742-2.5236,4.3174q10.99,7.1067,22.291,13.7043c2.7844,1.6257,5.304-2.694,2.5236-4.3173Z"/><path class="cls-4" d="M154.8735,391.9375l8.98.1051-.6646-4.9107a34.1533,34.1533,0,0,1-11.4643,1.759v5A47.0685,47.0685,0,0,0,168.4821,391.1c3.0035-1.0846,1.7076-5.918-1.3292-4.8214a43.0846,43.0846,0,0,1-15.4281,2.6128c-3.2192-.0445-3.2191,4.9463,0,5a38.4339,38.4339,0,0,0,12.7935-1.9376c2.6313-.8694,2.2372-4.8768-.6646-4.9107l-8.98-.1051c-3.2184-.0376-3.2205,4.9624,0,5Z"/><path class="cls-4" d="M338.0014,459.6509S306.864,497.8443,295.1833,518.88c0,0,48.5111-5.6807,75.9647,46.9705"/><path class="cls-4" d="M166.5914,386.2268a8.3616,8.3616,0,0,1-.6491,3.6464,2.5776,2.5776,0,0,0,.8968,3.4205,2.5193,2.5193,0,0,0,3.4205-.8969,14.1082,14.1082,0,0,0,1.3318-6.17c-.0736-3.2124-5.0739-3.2241-5,0Z"/><path class="cls-4" d="M382.44,518.3028a87.4477,87.4477,0,0,0-1.6571,11.9981l4.9107-.6646c-1.5151-7.4268-3.2034-14.6855-6.3475-21.6136-.9216-2.0308-4.0355-1.3307-4.5693.5972a115.2416,115.2416,0,0,0-3.5063,18.6042c-.3,2.8074,4.2932,3.3869,4.9107.6646a20.7437,20.7437,0,0,0-.5656-11.8141l-4.5694,1.9264a52.1459,52.1459,0,0,0,6.5059,10.619c1.501,1.9262,4.0544.0873,4.2677-1.7678a38.2264,38.2264,0,0,0-1.3583-15.4282c-.8489-2.8869-4.5762-2.0051-4.9107.6646-.8018,6.3991,1.304,12.184,3.3587,18.1524,2.2156,6.4354,4.0254,12.9913,5.8132,19.5556.7764,2.851,4.6743,2.0476,4.9107-.6646a61.4938,61.4938,0,0,0-2.0193-21.8635,2.5209,2.5209,0,0,0-4.8213,0,236.3513,236.3513,0,0,0-5.5621,23.3832h4.8214l-3.0982-14.9375c-.4823-2.3254-4.4334-2.4455-4.8214,0l-1.7369,10.948,4.9107.6646a47.7539,47.7539,0,0,1,3.0907-17.4361h-4.8214c3.23,11.1471-.5544,20.5079-5.9326,30.2031-1.5623,2.8163,2.7544,5.341,4.3173,2.5236,6.0519-10.9094,10.0539-21.5715,6.4367-34.0559a2.5235,2.5235,0,0,0-4.8214,0,51.4912,51.4912,0,0,0-3.2693,18.7653c.0259,2.7082,4.4551,3.5364,4.9107.6646l1.7369-10.948h-4.8214l3.0982,14.9375c.4886,2.3557,4.3751,2.4154,4.8214,0a236.3938,236.3938,0,0,1,5.562-23.3832H382.793a57.49,57.49,0,0,1,1.8406,20.5343l4.9107-.6646c-1.6247-5.9654-3.2486-11.9359-5.2134-17.8-2.0545-6.1323-4.6078-11.9711-3.78-18.5784l-4.9107.6646a34.388,34.388,0,0,1,1.18,14.099l4.2678-1.7678a46.9744,46.9744,0,0,1-5.7241-9.607c-1.1639-2.5668-5.4872-.7459-4.5693,1.9264a15.5694,15.5694,0,0,1,.5656,9.1557l4.9107.6646a107.1473,107.1473,0,0,1,3.3277-17.275l-4.5694.5972c2.9523,6.5056,4.4226,13.4546,5.8434,20.4192.5923,2.903,4.7273,2.0067,4.9107-.6646a77.8642,77.8642,0,0,1,1.4785-10.6689c.6571-3.1395-4.1616-4.4818-4.8214-1.3292Z"/><path class="cls-4" d="M374.27,562.4879a96.6048,96.6048,0,0,0-.2312-32.9919c-.527-2.9394-4.704-1.97-4.9107.6646a130.8678,130.8678,0,0,0-.2489,16.5944,2.5015,2.5015,0,0,0,5,0,29.2461,29.2461,0,0,0-4.6615-17.0281,2.5471,2.5471,0,0,0-3.9264-.506c-3.4662,2.7993-2.9794,9.0363-3.0633,13.0288h5a50.8152,50.8152,0,0,0-3.9079-14.9481c-1.0711-2.5-4.49-.9211-4.6587,1.2618a30.3232,30.3232,0,0,0,1.9407,13.4248,2.5131,2.5131,0,0,0,4.9107-.6646c.1733-1.9646.3185-3.9247.4366-5.8934l-4.6587,1.2618a150.4415,150.4415,0,0,1,8.7268,15.3846c1.0932,2.1363,4.89,1.215,4.6587-1.2618a63.488,63.488,0,0,0-4.8586-19.1642c-1.0129-2.3882-4.6536-1.0312-4.6587,1.2618a109.5653,109.5653,0,0,0,1.7856,19.8171c.5063,2.8,4.9585,2.1115,4.9107-.6646a16.4985,16.4985,0,0,0-2.93-9.4007c-1.06-1.5536-4.2391-1.7269-4.5694.5972a25.0082,25.0082,0,0,0,.2543,9.0262c.5962,2.8363,4.8283,2.0739,4.9107-.6646a16.4733,16.4733,0,0,0-1.0838-6.6374c-1.12-2.9752-5.9281-1.7147-4.8214,1.3292l4.6673,12.8368c1.0909,3,5.9246,1.7049,4.8214-1.3292l-4.6673-12.8368-4.8214,1.3292a13.1131,13.1131,0,0,1,.9052,5.3082l4.9107-.6646a17.1162,17.1162,0,0,1-.2543-6.3678l-4.5693.5972a11.6061,11.6061,0,0,1,2.2473,6.8771l4.9107-.6646a102.1946,102.1946,0,0,1-1.607-18.4879l-4.6586,1.2618a55.4754,55.4754,0,0,1,4.1759,16.6406l4.6587-1.2618a150.4637,150.4637,0,0,0-8.7269-15.3846A2.5222,2.5222,0,0,0,360.95,535.43c-.1181,1.9687-.2633,3.9288-.4366,5.8934l4.9107-.6646a26.8823,26.8823,0,0,1-1.7621-12.0956l-4.6587,1.2618a42.5189,42.5189,0,0,1,3.2253,12.4245c.3306,3.1353,4.931,3.2879,5,0,.0466-2.2138-.3417-7.9261,1.5988-9.4932l-3.9264-.506A24.4978,24.4978,0,0,1,368.88,546.755h5a130.8459,130.8459,0,0,1,.2489-16.5944l-4.9107.6646a89.125,89.125,0,0,1,.2312,30.3335c-.517,3.1477,4.3,4.5017,4.8214,1.3292Z"/><path class="cls-4" d="M209.8988,380.4166s-8.9184,1.38-13.3057-1.5452l-3.04,12.5382,14.8436,8.3458,1.5026-11.0666Z"/><path class="cls-6" d="M379.2723,409.285s-21.87,60.4811-67.5161,78.2377c0,0-.0714-74.8149-16.5729-91.5768Z"/><path class="cls-6" d="M296.3962,404.5173s11.7961,86.8314,5.5238,90.0953,54.5141-18.3392,77.3523-84.4077Z"/><path class="cls-3" d="M305.7477,560.798a27.6249,27.6249,0,0,1-8.4355,5.2328c-2.9655,1.1555-1.6757,5.9922,1.3292,4.8214a34.3261,34.3261,0,0,0,10.6418-6.5187c2.3972-2.1568-1.1481-5.6836-3.5355-3.5355Z"/><path class="cls-3" d="M306.4033,561.4754a19.8677,19.8677,0,0,1-10.0132,6.8352c-3.0782.9115-1.7676,5.7385,1.3292,4.8214a24.3787,24.3787,0,0,0,12.22-8.121c1.99-2.4893-1.5259-6.05-3.5355-3.5356Z"/><path class="cls-3" d="M322.8965,563.9345c-.3863,4.6252-9.1923,4.6991-12.413,4.6957-3.2174-.0035-3.2224,4.9965,0,5,6.7534.0072,16.7129-1.3129,17.413-9.6957.2677-3.2064-4.7337-3.1887-5,0Z"/><path class="cls-3" d="M312.119,546.2375c-.5547,3.9608-3.3309,6.9992-7.4482,7.2248-3.2.1755-3.22,5.1766,0,5a12.8272,12.8272,0,0,0,12.27-10.8956,2.59,2.59,0,0,0-1.7461-3.0753,2.5154,2.5154,0,0,0-3.0753,1.7461Z"/><path class="cls-3" d="M312.3794,579.933c-9.9752,2.8688-19.1721-5.6622-29.1634-5.8119-3.2186-.0482-3.22,4.9518,0,5,10.73.1608,19.4233,8.8168,30.4925,5.6333,3.0868-.8878,1.7742-5.714-1.3291-4.8214Z"/><path class="cls-3" d="M314.5221,580.3251c-2.9468,3.04-7.98-.1645-11.6115-.1914-3.2181-.0239-3.2213,4.9761,0,5,2.8454.0211,5.4487,1.4474,8.2953,1.5587a8.8928,8.8928,0,0,0,6.8517-2.8318c2.2408-2.3114-1.2908-5.851-3.5355-3.5355Z"/><path class="cls-3" d="M292.4642,592.1247q-9.4143-.6973-18.8467-1.0435c-3.218-.1182-3.2131,4.882,0,5q9.4337.3462,18.8467,1.0435c3.21.2377,3.1948-4.7634,0-5Z"/><path class="cls-3" d="M263.9183,599.22c-3.4148,1.8464-7.0868,3.9782-10.9095,4.797-4.1987.8992-8.09-.6412-11.94-2.1285-3.0036-1.16-4.3042,3.6722-1.3292,4.8214,4.2606,1.6457,8.5376,3.0852,13.155,2.3991,4.77-.7088,9.3716-3.3136,13.5477-5.5717,2.8314-1.531.31-5.8495-2.5236-4.3173Z"/><path class="cls-3" d="M292.4493,595.8973c-5.1482,2.62-11.4007,1.3413-16.9684,1.8744a59.4468,59.4468,0,0,0-15.6919,3.7425c-2.9744,1.14-1.6832,5.9756,1.3292,4.8214a55.5927,55.5927,0,0,1,19.7018-3.8142c5.0023-.036,9.6018.0091,14.1529-2.3067,2.8686-1.46.3411-5.775-2.5236-4.3174Z"/><path class="cls-3" d="M291.9338,600.08a5.1864,5.1864,0,0,0,5.0726-1.3315,9.3469,9.3469,0,0,0,2.2377-4.3318,2.5006,2.5006,0,1,0-4.8214-1.3292c-.1162.394-.234.7872-.3719,1.1742q-.0934.2392-.0017.0354l-.1172.2443a3.6372,3.6372,0,0,0-.233.4334c.0668-.0915-.1849.1991-.228.2382q-.187.1741.0026-.0007l-.2212.126c.2736-.048-.0113.0039-.1089.0036.1877,0,.5677.06.12-.0833a2.5006,2.5006,0,0,0-1.3292,4.8214Z"/><path class="cls-3" d="M16.3444,590.5482c3.095,3.2262,7.1023,4.785,10.9551,6.8962a127.3091,127.3091,0,0,1,12.8805,8.401c8.0811,5.7953,16.0286,11.5809,25.41,15.1053,3.0157,1.1329,4.3185-3.6984,1.3292-4.8214-8.9273-3.3538-16.5334-9.0919-24.2158-14.6013-3.5107-2.5176-7.05-5.01-10.7745-7.2053-4.0078-2.3621-8.78-3.9022-12.0492-7.31-2.2319-2.3265-5.7645,1.2121-3.5355,3.5355Z"/><path class="cls-3" d="M64.3469,553.9129a11.03,11.03,0,0,1-6.1707-2.86c-2.3437-2.2022-5.8865,1.3265-3.5355,3.5355a15.4913,15.4913,0,0,0,8.377,4.146,2.5837,2.5837,0,0,0,3.0753-1.7461,2.5182,2.5182,0,0,0-1.7461-3.0753Z"/><path class="cls-3" d="M65.464,552.79c-2.7765-2.9058-2.9125-6.5444-4.99-9.7465-1.7269-2.6622-4.8357-3.5248-7.0921-5.5647-2.3818-2.1533-5.9286,1.372-3.5355,3.5355,2.5224,2.2805,5.9289,3.1416,7.1829,6.5135,1.25,3.36,2.3659,6.147,4.8988,8.7978,2.2274,2.3311,5.76-1.208,3.5355-3.5356Z"/><path class="cls-14" d="M228.3724,123.4076s20.5573,1.5853,43.0525-15.6049l2.2794,10.6194s-19.7079,18.7981-47.7461,15.78Z"/><path class="cls-14" d="M233.6846,96.45s15.2229,1.618,31.8808-15.9275l1.6879,10.8389s-14.5939,19.1868-35.3565,16.1062Z"/><path class="cls-14" d="M240.3007,71.0026s9.804,1.22,20.5322-12.0091l1.0871,8.1724S252.5211,81.6324,239.1493,79.31Z"/><path class="cls-2" d="M308.4014,570.0869l11.92,2.2048s-2.6553,9.5238-7.4807,10.54-22.3108-4.8528-24.5144-5.0793-17.39,2.4127-17.39,2.4127l-28.9524,12.5714,23.8191-31.3629Z"/><path class="cls-2" d="M265.8238,585.4018l17.1638-2.0368s12.47,4.2745,15.6758,4.2745.003,12.0221-4.54,11.7549-22.977-1.6029-22.977-1.6029l-21.1054,11.4877L225.73,606.0733l9.6177-23.9105,32.5364-27.7349,47.8779-12.7394s6.6789,11.2206-11.755,14.9608c0,0,18.41,3.473,21.227,2.4044s4.6873,6.8592-1.19,10.7764-29.92,0-29.92,0l-20.5554,7.1231"/><path class="cls-2" d="M107.4861,583.9228l-30.22-30.5994L65.3711,526.0025l-18.0033-4.5274-12.86,10.3038s1.6074,4.9959,5.4653,4.9959,10.6091-.3123,11.2521.3122,11.252,15.6119,11.252,15.6119l-26.04-14.363-11.5736,8.7427v6.8693l-7.3942,9.6794,2.5719,4.9958L15.219,565.68l-7.3942,5.441s3.8578,14.9875,7.7157,17.4854S27.114,592.041,27.114,592.041s37.2927,38.4053,60.44,28.4137c0,0,18.6463-38.0931,19.9323-38.0931"/><polygon class="cls-3" points="24.864 553.948 24.864 550.229 32.015 552.821 34.11 557.66 24.864 553.948"/></g></g></svg>